# xmcd
#
# Track frame offsets: 
#        150
#        10882
#        20797
#        29287
#        38680
#        47657
#        59375
#        71522
#        79350
#        89717
#
# Disc length: 1380 seconds
#
# Revision: 1
# Processed by: cddbd v1.5.2PL0 Copyright (c) Steve Scherf et al.
# Submitted via: ExactAudioCopyFreeDBPlugin 1.0
#
DISCID=8205620a
DTITLE=Roy Clark - Roy Clark Sings and Plays Gospel Greats Volume Two
DYEAR=1996
DGENRE=Gospel
TTITLE0=When The Roll Is Called Up Yonder
TTITLE1=I Saw The Light
TTITLE2=At The Cross
TTITLE3=Bringing In The Sheaves
TTITLE4=The Church In The Wildwood
TTITLE5=Unclouded Day
TTITLE6=Just Over In The Gloryland
TTITLE7=Are You Washed In The Blood
TTITLE8=Shall We Gather At The River
TTITLE9='Tis So Sweet To Trust In Jesus
EXTD=ID3G: 38
EXTT0=
EXTT1=
EXTT2=
EXTT3=
EXTT4=
EXTT5=
EXTT6=
EXTT7=
EXTT8=
EXTT9=
PLAYORDER=
